<mxfile host="app.diagrams.net" agent="Mozilla/5.0 (Windows NT 10.0; Win64; x64) AppleWebKit/537.36 (KHTML, like Gecko) Chrome/133.0.0.0 Safari/537.36" version="26.1.0">
  <diagram name="Page-1" id="JNUPPGPjYZ3KwmnHaIBi">
    <mxGraphModel dx="880" dy="434" grid="1" gridSize="10" guides="1" tooltips="1" connect="1" arrows="1" fold="1" page="1" pageScale="1" pageWidth="850" pageHeight="1100" math="0" shadow="0">
      <root>
        <mxCell id="0" />
        <mxCell id="1" parent="0" />
        <mxCell id="EOZPL2xRb22a452zDBul-1" value="Activity diagram isi kuisioner Pretest" style="swimlane;childLayout=stackLayout;resizeParent=1;resizeParentMax=0;startSize=20;html=1;" vertex="1" parent="1">
          <mxGeometry x="240.00000000000045" y="90" width="500" height="480" as="geometry" />
        </mxCell>
        <mxCell id="EOZPL2xRb22a452zDBul-2" value="Tim peneliti" style="swimlane;startSize=20;html=1;" vertex="1" parent="EOZPL2xRb22a452zDBul-1">
          <mxGeometry y="20" width="250" height="460" as="geometry" />
        </mxCell>
        <mxCell id="EOZPL2xRb22a452zDBul-3" value="sistem" style="swimlane;startSize=20;html=1;" vertex="1" parent="EOZPL2xRb22a452zDBul-1">
          <mxGeometry x="250" y="20" width="250" height="460" as="geometry" />
        </mxCell>
      </root>
    </mxGraphModel>
  </diagram>
</mxfile>
